<svg version="1.2" xmlns="http://www.w3.org/2000/svg" viewBox="0 0 195 232" width="195" height="232">
	<style>
		.s0 { fill: #13a7ac } 
		.s1 { fill: #ffffff;stroke: #000000;stroke-miterlimit:10 } 
	</style>
	<g id="Layer 1">
		<path id="Forma 3" fill-rule="evenodd" class="s0" d="m33 30v17l79 37z"/>
		<path id="Forma 4" fill-rule="evenodd" class="s0" d="m49 19l1 15 66 47z"/>
		<path id="Forma 5" fill-rule="evenodd" class="s0" d="m68.76 12.83l1.24 19.17 51.71 50.7z"/>
		<path id="Forma 6" fill-rule="evenodd" class="s1" d="m237 102"/>
		<path id="Forma 2" fill-rule="evenodd" class="s0" d="m130 64c-12.17 0-22-9.83-22-22 0-12.17 9.83-22 22-22 12.17 0 22 9.83 22 22 0 12.17-9.83 22-22 22z"/>
		<path id="Forma 1" fill-rule="evenodd" class="s0" d="m166 189h8c0.02 19.04-24.24 49.92-58 40-23.28-10.59-94.26-45-95-45l-1.04-137.75c79.42 31.62 88.61 60.3 131.04 39.75l-5 111c1.55 11.04 17.73 4.42 20-8z"/>
	</g>
</svg>